<svg version="1.1" id="Layer_1" xmlns="http://www.w3.org/2000/svg" xmlns:xlink="http://www.w3.org/1999/xlink" x="0px" y="0px"
	 width="100%" viewBox="0 0 432 720" enable-background="new 0 0 432 720" xml:space="preserve">
<path fill="#2b4a42" opacity="1.000000" stroke="none" 
	d="
M286.247375,556.181030 
	C287.011841,577.271606 279.097015,593.886414 262.456360,606.698730 
	C265.976318,609.228943 269.159119,611.269226 272.066132,613.646667 
	C290.215607,628.489929 293.964813,653.766052 280.623901,670.641113 
	C271.199799,682.561768 258.142914,685.563293 243.996216,684.925964 
	C229.292328,684.263489 215.094009,680.547729 201.137802,676.019348 
	C198.628387,675.205139 196.191269,673.985901 193.942535,672.595093 
	C190.939804,670.737915 188.540558,668.051880 190.163635,664.312988 
	C191.858337,660.409241 194.601532,656.997681 199.514191,657.410461 
	C209.855453,658.279541 219.574387,662.025696 229.615631,664.301514 
	C236.624084,665.890015 243.635345,667.159851 250.861282,666.679749 
	C259.048126,666.135742 264.965820,662.132080 268.735596,654.907166 
	C272.309662,648.057251 270.892700,641.706787 266.700531,635.663452 
	C260.478973,626.694641 251.373932,620.952942 242.920227,614.496460 
	C240.459610,612.617188 237.671967,614.164124 235.191299,614.559509 
	C204.837631,619.396790 174.512039,624.410400 144.184341,629.409729 
	C142.419952,629.700623 140.700180,630.262207 138.747925,630.750732 
	C139.202820,633.406738 141.203415,634.164917 142.885696,634.932434 
	C147.426041,637.003540 152.070007,638.847412 156.671616,640.784424 
	C160.506836,642.398865 164.438660,643.821411 168.150070,645.682983 
	C172.972397,648.101990 175.250046,653.099731 173.772247,657.162598 
	C172.218582,661.434021 167.039093,663.899048 161.696655,662.727173 
	C154.823578,661.219299 148.451172,658.305054 142.055008,655.473877 
	C131.081924,650.616699 120.312798,645.347473 109.822624,639.518005 
	C107.932358,638.467590 106.067741,637.346069 104.302650,636.099670 
	C96.672623,630.711609 96.562927,624.561523 103.985138,618.705994 
	C107.670357,615.798706 111.772163,613.518372 116.056313,611.685486 
	C140.694351,601.144958 163.154388,586.789307 185.407303,572.101501 
	C208.224899,557.040894 230.209183,540.816345 251.787933,524.027100 
	C254.967056,521.553528 256.008759,518.876648 255.996475,515.128540 
	C255.961029,504.309540 256.049164,493.453156 258.096832,482.800049 
	C261.272583,466.278046 270.178314,453.487213 284.128876,444.063080 
	C295.051331,436.684631 306.685333,430.494568 317.813354,423.468506 
	C327.710999,417.219208 337.346802,410.640076 343.687714,400.398529 
	C348.527771,392.581085 349.514862,384.216644 346.803131,375.485626 
	C344.716064,368.765961 342.082520,362.165222 337.002014,357.144287 
	C318.156952,338.520233 299.086060,320.124756 280.240265,301.501434 
	C277.223267,298.520050 274.573090,297.741211 271.174927,300.437378 
	C270.659485,300.846344 270.030151,301.116913 269.440094,301.425842 
	C264.023468,304.261627 258.621704,303.510406 255.983093,299.560425 
	C253.457870,295.780151 254.568069,290.476135 258.728943,286.536530 
	C259.565979,285.744049 260.455994,285.007568 261.333282,284.234955 
	C261.028534,281.503418 258.833313,280.264496 257.235840,278.704987 
	C241.664185,263.503265 227.986679,246.770004 216.368668,228.369202 
	C214.684204,225.701324 213.116776,222.923218 211.838333,220.043762 
	C209.868179,215.606415 211.062180,211.477966 214.684036,209.042252 
	C218.173630,206.695480 223.734604,207.062500 226.691360,210.102173 
	C228.301163,211.757111 229.723160,213.681671 230.864838,215.691940 
	C246.994659,244.093246 270.103668,266.456421 293.701782,288.386139 
	C312.617920,305.964844 332.144440,322.910919 349.263947,342.337830 
	C359.493622,353.946228 366.149506,367.198181 366.149841,382.907013 
	C366.150238,400.921570 359.018829,415.852081 344.871155,427.207642 
	C331.414124,438.008881 315.677216,445.199280 301.313751,454.563690 
	C290.561951,461.573456 280.274261,469.376678 277.237213,482.694885 
	C273.398773,499.527557 271.029938,516.460205 280.273041,532.686279 
	C284.292206,539.741760 285.445343,547.722717 286.247375,556.181030 
M265.692261,544.864014 
	C265.014648,542.889221 265.081238,540.585571 262.774933,538.701477 
	C231.271194,560.964600 199.719345,583.261658 168.167511,605.558777 
	C172.354828,605.988708 175.913589,605.304443 179.485352,604.696716 
	C199.426086,601.303345 219.608994,599.336975 239.323257,594.614136 
	C253.405258,591.240540 264.234406,584.079407 267.180023,568.853149 
	C268.675568,561.122559 267.943787,553.293335 265.692261,544.864014 
z"/>
<path fill="#2b4a42" opacity="1.000000" stroke="none" 
	d="
M170.938263,93.779541 
	C169.037994,81.542480 167.163498,69.743805 165.444611,57.922516 
	C164.619965,52.251110 168.175095,46.898632 172.970871,46.153404 
	C177.976898,45.375511 181.203033,48.154472 182.566772,54.484291 
	C183.195740,57.403656 183.782349,60.333542 184.317200,63.271576 
	C189.693710,92.806244 192.915695,122.746704 201.164017,151.742386 
	C203.083527,158.490128 205.721558,164.933243 208.359161,171.398239 
	C209.676636,174.627487 210.968933,177.857056 211.538773,181.348801 
	C212.368835,186.435074 210.571686,189.875824 205.953033,191.593170 
	C201.713470,193.169540 197.929123,191.859863 195.340302,187.569397 
	C190.828781,180.092407 188.428787,171.734055 185.765900,163.511322 
	C184.025726,158.137848 182.499512,152.686905 181.108704,147.211914 
	C180.409363,144.458954 179.415176,143.498413 176.287460,144.016891 
	C169.517578,145.139084 166.630646,143.638504 164.695709,139.025818 
	C162.840302,134.602707 163.814224,130.675583 169.041611,127.041252 
	C174.405090,123.312309 175.558792,118.965263 174.090515,112.871651 
	C172.617783,106.759521 172.013107,100.438240 170.938263,93.779541 
z"/>
<path fill="#2b4a42" opacity="1.000000" stroke="none" 
	d="
M210.666458,438.921875 
	C191.239090,430.071228 180.850266,407.018372 186.232468,385.426758 
	C187.321823,381.056641 188.636719,376.769012 190.808258,372.794952 
	C193.516541,367.838593 197.775589,366.223633 202.989304,368.147217 
	C207.306427,369.740021 209.167999,373.907257 207.805496,379.288849 
	C206.623260,383.958405 205.196182,388.566315 204.030869,393.239716 
	C201.934326,401.647705 203.718811,409.021637 210.031540,415.189697 
	C213.124878,418.212158 216.174454,421.296417 219.027390,424.542908 
	C221.629929,427.504425 222.583160,431.054382 220.680893,434.723633 
	C218.684464,438.574554 215.353195,440.044281 210.666458,438.921875 
z"/>
<path fill="#2b4a42" opacity="1.000000" stroke="none" 
	d="
M309.079926,167.067749 
	C315.043945,161.986633 320.675140,157.059799 326.452881,152.311310 
	C330.510651,148.976425 333.887421,149.083694 336.491333,152.281693 
	C339.025513,155.393967 338.388550,158.814438 334.434174,162.197800 
	C324.607422,170.605515 314.725739,178.949036 304.139984,187.934708 
	C308.758423,188.538208 312.598999,188.979111 310.965027,194.611481 
	C309.468567,199.769775 307.599731,201.054062 300.853882,200.449005 
	C295.732056,199.989609 290.600311,199.587631 285.464142,199.361465 
	C282.718933,199.240570 281.504822,198.064667 281.690674,195.368103 
	C282.112671,189.245789 282.274658,183.090973 283.034271,177.010803 
	C283.726044,171.473587 289.240509,168.794861 294.369598,170.960876 
	C297.440308,172.257675 295.210663,175.157959 296.600189,177.445389 
	C300.729095,174.013901 304.769409,170.656052 309.079926,167.067749 
z"/>
<path fill="#2b4a42" opacity="1.000000" stroke="none" 
	d="
M326.468903,232.117432 
	C334.861115,225.030304 343.013458,218.155075 351.163361,211.277023 
	C351.927277,210.632294 352.657776,209.946991 353.434937,209.319107 
	C358.051758,205.589157 361.747894,205.371643 364.338562,208.661713 
	C366.875275,211.883255 366.096039,215.185806 361.757355,218.923569 
	C356.582306,223.381882 351.321289,227.740219 346.125092,232.174194 
	C341.720245,235.932892 337.354614,239.737549 332.192047,244.194977 
	C336.525879,244.781799 340.210358,244.924469 338.717194,250.324051 
	C337.241119,255.661835 335.568665,257.579559 330.173492,257.177460 
	C324.372589,256.745117 318.599701,255.943161 312.800476,255.479141 
	C310.220001,255.272659 309.366058,254.181641 309.578430,251.646912 
	C310.092163,245.515167 310.229248,239.347305 310.885101,233.233353 
	C311.479095,227.696152 317.245392,224.926498 322.209839,227.320709 
	C325.396820,228.857712 322.618011,231.590088 323.661285,233.468079 
	C324.968658,233.970062 325.442444,232.811066 326.468903,232.117432 
z"/>
<path fill="#2b4a42" opacity="1.000000" stroke="none" 
	d="
M273.693481,144.369461 
	C267.267334,143.994858 261.303009,143.559311 255.331375,143.282318 
	C252.653015,143.158096 251.378616,142.157074 251.608566,139.308075 
	C252.102966,133.182999 252.237640,127.022682 252.912643,120.920273 
	C253.517914,115.448189 259.145782,112.680756 264.267365,114.915070 
	C267.394653,116.279381 264.696411,119.172913 266.212097,121.597855 
	C273.689667,115.280960 280.997223,109.112106 288.299347,102.936790 
	C291.094025,100.573380 293.805695,98.105392 296.681824,95.846268 
	C300.364075,92.953934 303.927795,93.125175 306.407379,96.104477 
	C308.875885,99.070473 308.328735,102.530228 304.681183,105.662086 
	C295.720978,113.355492 286.695557,120.972870 277.710876,128.637878 
	C276.857605,129.365829 275.686951,129.830109 275.347473,131.413193 
	C277.495483,132.994324 282.474457,132.025864 280.990021,137.408630 
	C279.940155,141.215485 279.011627,144.563309 273.693481,144.369461 
z"/>
<path fill="#2b4a42" opacity="1.000000" stroke="none" 
	d="
M129.792389,188.564117 
	C129.385742,183.124420 131.243179,178.659393 133.299942,174.272720 
	C136.566010,167.306793 140.741028,160.863998 145.234863,154.656570 
	C148.857849,149.652039 152.793549,148.694305 157.288406,151.157501 
	C161.297531,153.354507 162.497467,157.348297 160.688507,162.957596 
	C158.827179,168.729263 155.380035,173.677948 152.291901,178.814041 
	C150.235168,182.234756 147.927444,185.579758 146.436981,189.245270 
	C144.850021,193.148178 142.479141,195.257874 138.288330,195.300217 
	C133.865280,195.344910 131.069672,193.215469 129.792389,188.564117 
z"/>
<path fill="#2b4a42" opacity="1.000000" stroke="none" 
	d="
M174.051666,280.895569 
	C177.322891,283.258087 180.069839,285.672272 182.362122,288.558807 
	C184.788605,291.614349 185.144363,294.998138 183.187515,298.329987 
	C181.245697,301.636230 177.980316,302.535095 174.513596,301.449677 
	C160.677734,297.117767 150.447220,288.269958 143.618958,275.609100 
	C141.149902,271.030975 144.443085,268.047485 147.861099,265.719604 
	C151.751785,263.069824 156.370117,263.664337 159.364868,267.765106 
	C163.298447,273.151459 168.441360,276.965240 174.051666,280.895569 
z"/>
<path fill="#2b4a42" opacity="1.000000" stroke="none" 
	d="
M230.733154,314.269043 
	C221.340027,314.654755 212.374542,315.310547 203.519531,313.370392 
	C197.610947,312.075836 194.296982,307.801208 195.193497,302.903076 
	C196.186752,297.476349 199.929565,295.018127 206.214584,295.452118 
	C216.156235,296.138702 226.137985,295.346893 236.091293,296.448425 
	C240.554337,296.942322 242.740295,299.007111 243.265335,303.161743 
	C243.823776,307.580627 242.471390,311.130341 237.957184,312.682190 
	C235.777069,313.431671 233.444138,313.736603 230.733154,314.269043 
z"/>
<path fill="#2b4a42" opacity="1.000000" stroke="none" 
	d="
M134.638748,207.724487 
	C139.243515,208.580383 140.817047,211.826401 141.132538,215.386307 
	C141.999329,225.166885 143.266891,234.824753 145.849792,244.343445 
	C147.197952,249.311707 143.930115,253.987991 138.942749,255.550201 
	C133.991653,257.101044 131.302673,253.994034 129.474869,250.284866 
	C123.940559,239.054062 122.709358,227.010895 124.005653,214.750107 
	C124.563057,209.477936 127.724297,207.713516 134.638748,207.724487 
z"/>
<path fill="#2b4a42" opacity="1.000000" stroke="none" 
	d="
M296.036560,408.040100 
	C291.771088,412.714783 287.670624,413.360870 283.031616,410.390228 
	C279.358856,408.038330 278.221222,403.771301 279.966827,398.894379 
	C284.180084,387.123169 299.968903,377.716583 312.111725,379.853882 
	C316.493439,380.625092 319.278046,382.980286 319.540924,387.844940 
	C319.799042,392.620483 318.268951,395.990112 313.365967,397.252716 
	C311.918365,397.625488 310.468048,398.140198 308.995636,398.237762 
	C302.666260,398.657104 298.409210,401.763611 296.036560,408.040100 
z"/>
</svg>